<?xml version="1.0" encoding="UTF-8" standalone="no"?>
<!-- Created with Inkscape (http://www.inkscape.org/) -->

<svg
   width="1000.0001"
   height="200"
   viewBox="0 0 264.58335 52.916666"
   version="1.1"
   id="svg1"
   xmlns="http://www.w3.org/2000/svg"
   xmlns:svg="http://www.w3.org/2000/svg">
  <defs
     id="defs1" />
  <g
     id="layer1">
    <text
       xml:space="preserve"
       style="font-size:32.4995px;letter-spacing:2.66279px;fill:#ffeee2;fill-opacity:1;stroke:none;stroke-width:0.435399;stroke-dasharray:none;stroke-opacity:1"
       x="91.103424"
       y="39.141541"
       id="text1"><tspan
         id="tspan1"
         style="font-style:normal;font-variant:normal;font-weight:600;font-stretch:normal;font-family:'Noto Sans';-inkscape-font-specification:'Noto Sans Semi-Bold';letter-spacing:2.66279px;fill:#ffeee2;fill-opacity:1;stroke:none;stroke-width:0.435399;stroke-dasharray:none;stroke-opacity:1"
         x="91.103424"
         y="39.141541">F-Droid</tspan></text>
    <g
       id="SVGRepo_iconCarrier-3"
       transform="matrix(1.8989369,0,0,1.8989369,4.1159962,3.6724206)"
       style="fill:#ffeee2;fill-opacity:1">
      <path
         d="M 20.472,10.081 H 3.528 A 1.59,1.59 0 0 0 1.939,11.67 v 10.59 a 1.59,1.59 0 0 0 1.589,1.589 H 20.472 A 1.59,1.59 0 0 0 22.061,22.26 V 11.67 A 1.59,1.59 0 0 0 20.472,10.081 Z M 12,22.525 c -3.066,0 -5.56,-2.494 -5.56,-5.56 0,-3.066 2.494,-5.56 5.56,-5.56 3.066,0 5.56,2.494 5.56,5.56 0,3.066 -2.494,5.56 -5.56,5.56 z m 0,-10.114 c -2.511,0 -4.554,2.043 -4.554,4.554 0,2.511 2.043,4.554 4.554,4.554 2.511,0 4.554,-2.043 4.554,-4.554 0,-2.511 -2.043,-4.554 -4.554,-4.554 z m 0,7.863 A 3.322,3.322 0 0 1 8.779,17.706 h 1.67 c 0.275,0.581 0.859,0.979 1.551,0.979 0.96,0 1.721,-0.761 1.721,-1.721 0,-0.96 -0.761,-1.721 -1.721,-1.721 a 1.7,1.7 0 0 0 -1.493,0.874 H 8.805 A 3.322,3.322 0 0 1 12,13.655 3.321,3.321 0 0 1 15.309,16.964 3.321,3.321 0 0 1 12,20.274 Z M 23.849,0.396 23.847,0.399 23.841,0.394 23.845,0.39 A 0.668,0.668 0 0 0 23.326,0.152 0.654,0.654 0 0 0 22.814,0.411 L 20.996,2.764 A 1.564,1.564 0 0 0 20.473,2.669 H 3.528 C 3.344,2.669 3.17,2.707 3.005,2.764 L 1.187,0.41 A 0.657,0.657 0 0 0 0.156,0.389 L 0.16,0.393 0.153,0.399 0.151,0.396 A 0.662,0.662 0 0 0 0.139,1.22 L 2.048,3.691 A 1.587,1.587 0 0 0 1.94,4.257 V 7.964 A 1.59,1.59 0 0 0 3.529,9.553 H 20.473 A 1.59,1.59 0 0 0 22.062,7.964 V 4.257 c 0,-0.2 -0.041,-0.39 -0.109,-0.566 L 23.862,1.22 A 0.663,0.663 0 0 0 23.849,0.396 Z M 6.904,8.228 a 1.787,1.787 0 1 1 0,-3.574 1.787,1.787 0 0 1 0,3.574 z m 10.325,0 a 1.787,1.787 0 1 1 0,-3.574 1.787,1.787 0 0 1 0,3.574 z"
         id="path1-8"
         style="fill:#ffeee2;fill-opacity:1" />
    </g>
  </g>
</svg>
