<?xml version="1.0" encoding="UTF-8" standalone="no"?>
<!-- Created with Inkscape (http://www.inkscape.org/) -->

<svg
   width="1000.0001"
   height="200"
   viewBox="0 0 264.58335 52.916666"
   version="1.1"
   id="svg1"
   xmlns="http://www.w3.org/2000/svg"
   xmlns:svg="http://www.w3.org/2000/svg">
  <defs
     id="defs1" />
  <g
     id="layer1">
    <g
       id="SVGRepo_iconCarrier"
       transform="matrix(2.2442649,0,0,2.2442649,4.9651769,4.0156012)"
       style="fill:#ffeee2;fill-opacity:1">
      <title
         id="title1">github [#142]</title>
      <desc
         id="desc1">Created with Sketch.</desc>
      <defs
         id="defs1-7" />
      <g
         id="Page-1"
         stroke="none"
         stroke-width="1"
         fill="none"
         fill-rule="evenodd"
         style="fill:#ffeee2;fill-opacity:1">
        <g
           id="Dribbble-Light-Preview"
           transform="translate(-140,-7559)"
           fill="#000000"
           style="fill:#ffeee2;fill-opacity:1">
          <g
             id="icons"
             transform="translate(56,160)"
             style="fill:#ffeee2;fill-opacity:1">
            <path
               d="m 94,7399 c 5.523,0 10,4.59 10,10.253 0,4.529 -2.862,8.371 -6.833,9.728 -0.507,0.101 -0.687,-0.219 -0.687,-0.492 0,-0.338 0.012,-1.442 0.012,-2.814 0,-0.956 -0.32,-1.58 -0.679,-1.898 2.227,-0.254 4.567,-1.121 4.567,-5.059 0,-1.12 -0.388,-2.034 -1.03,-2.752 0.104,-0.259 0.447,-1.302 -0.098,-2.714 0,0 -0.838,-0.275 -2.747,1.051 -0.799,-0.227 -1.655,-0.341 -2.505,-0.345 -0.85,0 -1.705,0.118 -2.503,0.345 -1.911,-1.326 -2.751,-1.051 -2.751,-1.051 -0.543,1.412 -0.2,2.455 -0.097,2.714 -0.639,0.718 -1.03,1.632 -1.03,2.752 0,3.928 2.335,4.808 4.556,5.067 -0.286,0.256 -0.545,0.708 -0.635,1.371 -0.57,0.262 -2.018,0.715 -2.91,-0.852 0,0 -0.529,-0.985 -1.533,-1.057 0,0 -0.975,-0.013 -0.068,0.623 0,0 0.655,0.315 1.11,1.5 0,0 0.587,1.83 3.369,1.21 0.005,0.857 0.014,1.665 0.014,1.909 0,0.271 -0.184,0.588 -0.683,0.493 C 86.865,7417.627 84,7413.783 84,7409.253 84,7403.59 88.478,7399 94,7399"
               id="github-[#142]"
               style="fill:#ffeee2;fill-opacity:1" />
          </g>
        </g>
      </g>
    </g>
    <text
       xml:space="preserve"
       style="font-size:32.4995px;letter-spacing:2.66279px;fill:#ffeee2;fill-opacity:1;stroke:none;stroke-width:0.435399;stroke-dasharray:none;stroke-opacity:1"
       x="82.107582"
       y="38.645645"
       id="text1"><tspan
         id="tspan1"
         style="font-style:normal;font-variant:normal;font-weight:600;font-stretch:normal;font-family:'Noto Sans';-inkscape-font-specification:'Noto Sans Semi-Bold';letter-spacing:2.66279px;fill:#ffeee2;fill-opacity:1;stroke:none;stroke-width:0.435399;stroke-dasharray:none;stroke-opacity:1"
         x="82.107582"
         y="38.645645">Releases</tspan></text>
  </g>
</svg>
