<?xml version="1.0" encoding="UTF-8" standalone="no"?>
<!-- Created with Inkscape (http://www.inkscape.org/) -->

<svg
   width="1000.0001"
   height="200"
   viewBox="0 0 264.58335 52.916666"
   version="1.1"
   id="svg1"
   xmlns="http://www.w3.org/2000/svg"
   xmlns:svg="http://www.w3.org/2000/svg">
  <defs
     id="defs1" />
  <g
     id="layer1">
    <text
       xml:space="preserve"
       style="font-size:32.4995px;letter-spacing:2.66279px;fill:#ffeee2;fill-opacity:1;stroke:none;stroke-width:0.435399;stroke-dasharray:none;stroke-opacity:1"
       x="67.820068"
       y="36.495705"
       id="text1"><tspan
         id="tspan1"
         style="font-style:normal;font-variant:normal;font-weight:600;font-stretch:normal;font-family:'Noto Sans';-inkscape-font-specification:'Noto Sans Semi-Bold';letter-spacing:2.66279px;fill:#ffeee2;fill-opacity:1;stroke:none;stroke-width:0.435399;stroke-dasharray:none;stroke-opacity:1"
         x="67.820068"
         y="36.495705">Play Store</tspan></text>
    <g
       id="SVGRepo_iconCarrier"
       transform="matrix(1.8393406,0,0,1.8393406,2.7017992,4.3863468)"
       style="fill:#ffeee2;fill-opacity:1">
      <path
         d="m 22.018,13.298 -3.919,2.218 -3.515,-3.493 3.543,-3.521 3.891,2.202 a 1.49,1.49 0 0 1 0,2.594 z M 1.337,0.924 A 1.486,1.486 0 0 0 1.225,1.492 v 21.017 c 0,0.217 0.045,0.419 0.124,0.6 L 12.504,12.022 Z M 13.544,10.989 16.802,7.751 3.45,0.195 A 1.466,1.466 0 0 0 2.504,0.016 Z m 0,2.067 -11,10.933 c 0.298,0.036 0.612,-0.016 0.906,-0.183 l 13.324,-7.54 z"
         id="path1"
         style="fill:#ffeee2;fill-opacity:1" />
    </g>
  </g>
</svg>
